<svg version="1.1" id="Layer_1" xmlns="http://www.w3.org/2000/svg" xmlns:xlink="http://www.w3.org/1999/xlink" x="0px" y="0px"
	 width="100%" viewBox="0 0 500 500" enable-background="new 0 0 500 500" xml:space="preserve">
<path fill="#000000" opacity="1.000000" stroke="none" 
	d="
M221.000000,501.000000 
	C147.333344,501.000000 74.166702,501.000000 1.000039,501.000000 
	C1.000026,334.333405 1.000026,167.666779 1.000013,1.000129 
	C167.666565,1.000086 334.333130,1.000086 500.999756,1.000043 
	C500.999847,167.666534 500.999847,334.333069 500.999939,500.999817 
	C407.833344,501.000000 314.666656,501.000000 221.000000,501.000000 
M270.908417,296.903778 
	C270.908417,296.903778 270.905182,297.064148 270.462555,297.152954 
	C270.133453,297.337006 270.055969,297.596344 270.025482,298.434265 
	C269.988708,298.611603 269.951904,298.788910 269.460388,299.105804 
	C269.153198,299.287903 269.014099,299.556976 268.906799,299.923126 
	C268.906799,299.923126 268.907501,300.059753 268.470856,300.143188 
	C268.181671,300.309326 268.049988,300.558685 267.921692,300.905518 
	C267.921692,300.905518 267.926605,301.060242 267.307312,301.343262 
	C264.848877,305.373291 262.390442,309.403320 259.932007,313.433350 
	C260.419861,313.854126 260.907684,314.274902 261.395538,314.695679 
	C264.578339,311.157471 267.761169,307.619263 271.116180,304.078979 
	C271.116180,304.078979 271.124725,303.906952 271.536194,303.838989 
	C271.807922,303.684082 271.930389,303.450775 272.444824,302.914703 
	C272.661530,302.600555 272.878204,302.286438 273.543335,301.884094 
	C273.832428,301.714081 273.980072,301.461395 274.540833,300.988495 
	C274.725739,300.942993 274.910675,300.897461 275.591339,300.932251 
	C275.735291,300.648193 275.879242,300.364166 276.076019,300.067688 
	C276.076019,300.067688 276.073334,300.013519 276.516876,299.899261 
	C276.814301,299.736481 276.957642,299.485779 277.598511,298.847290 
	C300.158142,282.038605 326.356903,278.323181 354.292480,277.879974 
	C354.052124,275.175018 354.174194,272.561798 353.543854,270.144806 
	C350.820007,259.700684 347.726929,249.352264 345.043335,238.898376 
	C339.600677,217.696747 334.350006,196.445862 328.945099,175.234421 
	C328.740906,174.433167 327.872742,173.424438 327.112457,173.202362 
	C322.014832,171.713409 316.862549,170.411606 310.578339,168.744034 
	C318.729370,199.582123 326.705444,229.758255 334.734344,260.134308 
	C333.730011,260.512909 332.994690,260.788361 332.260620,261.067047 
	C320.907776,265.377563 309.250275,269.040527 298.294525,274.195099 
	C288.763794,278.679199 279.951447,284.758057 273.418060,294.135620 
	C272.967377,294.730438 272.516693,295.325287 271.904999,295.919830 
	C271.904999,295.919830 271.895142,296.080566 271.460022,296.151611 
	C271.175110,296.318787 271.044647,296.567169 270.908417,296.903778 
M241.512100,279.084290 
	C239.823135,275.733734 238.060806,272.417847 236.458618,269.026276 
	C231.156128,257.801666 228.313278,246.237854 233.000366,234.097290 
	C236.319733,225.499405 239.988052,217.029633 243.714661,208.597260 
	C248.169464,198.517166 249.838852,188.461960 245.396332,177.840530 
	C238.514893,161.388000 219.008484,156.237183 205.303635,157.120132 
	C202.721985,157.286453 199.982208,158.036789 199.441879,161.957840 
	C198.765121,166.868866 197.142502,171.658707 195.813263,176.469116 
	C190.053879,197.311707 184.204605,218.129608 178.499374,238.986938 
	C177.017166,244.405563 175.937546,249.934326 174.711243,255.246811 
	C191.279968,259.956146 205.396744,267.559448 218.162628,278.387207 
	C230.894333,289.186005 239.510757,302.774994 247.622864,317.416748 
	C249.049850,303.920685 246.989899,291.598297 241.512100,279.084290 
M292.509491,270.945251 
	C301.816437,264.364319 311.776337,259.153320 322.969147,256.591705 
	C326.363281,255.814957 326.953461,254.182877 326.025635,250.784744 
	C321.482300,234.144531 317.295990,217.406937 312.786682,200.757080 
	C312.479370,199.622482 310.672302,198.383575 309.370453,198.110672 
	C300.080200,196.163284 290.894928,196.128281 281.939453,199.993561 
	C266.413391,206.694733 256.974640,218.858994 254.409607,234.964691 
	C252.292603,248.257294 254.691574,261.872589 256.520569,275.327606 
	C257.650665,283.641266 256.768066,292.233215 256.720551,300.699829 
	C256.703613,303.713531 256.484680,306.726074 256.357941,309.739166 
	C258.277679,307.320282 260.367004,305.015717 262.088257,302.463013 
	C270.241394,290.371613 280.103607,279.950867 292.509491,270.945251 
M170.463226,245.951767 
	C171.416779,242.014389 172.265442,238.048096 173.341736,234.144562 
	C178.451996,215.610504 183.690445,197.111420 188.700485,178.550552 
	C189.420029,175.884827 189.144775,172.950607 189.329895,170.140640 
	C186.779037,170.473007 184.203568,170.682343 181.686951,171.185867 
	C180.274994,171.468369 178.951141,172.721909 177.603714,172.696091 
	C173.655853,172.620483 172.772202,175.273285 172.039627,178.214996 
	C168.593811,192.051788 165.280884,205.923019 161.692245,219.722580 
	C157.053421,237.560516 152.236176,255.352509 147.402985,273.139069 
	C146.447037,276.657043 147.515778,277.796631 151.124863,278.068939 
	C161.239319,278.832092 171.440216,279.331268 181.397522,281.108398 
	C200.945374,284.597198 218.602264,292.302246 232.571503,307.048004 
	C234.319138,308.892761 236.197495,310.613708 238.015289,312.391998 
	C238.435104,311.862061 238.854935,311.332092 239.274750,310.802155 
	C224.339340,281.363495 197.763840,268.109070 166.623108,260.576660 
	C167.805908,255.767746 168.924347,251.220505 170.463226,245.951767 
M345.091003,214.280685 
	C351.232025,237.342422 357.373016,260.404144 363.734955,284.295563 
	C327.120056,282.105774 293.948822,287.442444 267.135193,313.665039 
	C303.654724,293.865082 342.622070,296.040955 382.614044,300.941101 
	C379.617462,290.168884 376.725311,280.291107 374.128845,270.336243 
	C367.667938,245.565186 361.363617,220.753311 354.912292,195.979767 
	C354.481232,194.324448 353.699768,191.935959 352.473511,191.462402 
	C348.334045,189.863922 343.920349,188.975586 338.427795,187.497070 
	C340.820221,196.928833 342.914825,205.186478 345.091003,214.280685 
M130.118668,258.793304 
	C126.558357,272.755402 122.998047,286.717499 119.378998,300.909943 
	C120.554138,300.909943 121.712700,301.014069 122.847359,300.893433 
	C131.793152,299.942322 140.733322,298.160339 149.677261,298.148224 
	C163.844208,298.129028 178.095245,298.561096 192.155792,300.162415 
	C204.493256,301.567413 216.766907,304.358734 227.372116,311.709106 
	C228.320892,312.366730 229.896820,312.119476 231.181488,312.292450 
	C230.653305,310.970551 230.503113,309.194580 229.541122,308.393799 
	C210.223526,292.313080 187.435394,285.513000 162.803070,284.094360 
	C154.614594,283.622772 146.376068,284.019958 137.828583,284.019958 
	C146.325653,251.672577 154.621109,220.092651 162.934219,188.445587 
	C153.670944,187.595230 147.729660,191.092911 146.024689,197.799606 
	C140.914581,217.900757 135.696671,237.974518 130.118668,258.793304 
M289.857605,177.485458 
	C291.451263,175.228287 293.313293,173.112427 294.589630,170.688202 
	C298.898407,162.504120 297.479279,154.176147 290.880005,147.465561 
	C285.243286,141.733780 274.837769,140.087509 267.267944,144.008499 
	C259.818817,147.867020 256.158966,155.591812 256.869141,164.409607 
	C257.845062,176.526550 273.242523,188.610306 289.857605,177.485458 
z"/>
<path fill="#05FCE0" opacity="1.000000" stroke="none" 
	d="
M241.707825,279.423096 
	C246.989899,291.598297 249.049850,303.920685 247.622864,317.416748 
	C239.510757,302.774994 230.894333,289.186005 218.162628,278.387207 
	C205.396744,267.559448 191.279968,259.956146 174.711243,255.246811 
	C175.937546,249.934326 177.017166,244.405563 178.499374,238.986938 
	C184.204605,218.129608 190.053879,197.311707 195.813263,176.469116 
	C197.142502,171.658707 198.765121,166.868866 199.441879,161.957840 
	C199.982208,158.036789 202.721985,157.286453 205.303635,157.120132 
	C219.008484,156.237183 238.514893,161.388000 245.396332,177.840530 
	C249.838852,188.461960 248.169464,198.517166 243.714661,208.597260 
	C239.988052,217.029633 236.319733,225.499405 233.000366,234.097290 
	C228.313278,246.237854 231.156128,257.801666 236.458618,269.026276 
	C238.060806,272.417847 239.823135,275.733734 241.707825,279.423096 
z"/>
<path fill="#05FDE0" opacity="1.000000" stroke="none" 
	d="
M292.230255,271.186127 
	C280.103607,279.950867 270.241394,290.371613 262.088257,302.463013 
	C260.367004,305.015717 258.277679,307.320282 256.357941,309.739166 
	C256.484680,306.726074 256.703613,303.713531 256.720551,300.699829 
	C256.768066,292.233215 257.650665,283.641266 256.520569,275.327606 
	C254.691574,261.872589 252.292603,248.257294 254.409607,234.964691 
	C256.974640,218.858994 266.413391,206.694733 281.939453,199.993561 
	C290.894928,196.128281 300.080200,196.163284 309.370453,198.110672 
	C310.672302,198.383575 312.479370,199.622482 312.786682,200.757080 
	C317.295990,217.406937 321.482300,234.144531 326.025635,250.784744 
	C326.953461,254.182877 326.363281,255.814957 322.969147,256.591705 
	C311.776337,259.153320 301.816437,264.364319 292.230255,271.186127 
z"/>
<path fill="#0CF9DF" opacity="1.000000" stroke="none" 
	d="
M170.253006,246.312515 
	C168.924347,251.220505 167.805908,255.767746 166.623108,260.576660 
	C197.763840,268.109070 224.339340,281.363495 239.274750,310.802155 
	C238.854935,311.332092 238.435104,311.862061 238.015289,312.391998 
	C236.197495,310.613708 234.319138,308.892761 232.571503,307.048004 
	C218.602264,292.302246 200.945374,284.597198 181.397522,281.108398 
	C171.440216,279.331268 161.239319,278.832092 151.124863,278.068939 
	C147.515778,277.796631 146.447037,276.657043 147.402985,273.139069 
	C152.236176,255.352509 157.053421,237.560516 161.692245,219.722580 
	C165.280884,205.923019 168.593811,192.051788 172.039627,178.214996 
	C172.772202,175.273285 173.655853,172.620483 177.603714,172.696091 
	C178.951141,172.721909 180.274994,171.468369 181.686951,171.185867 
	C184.203568,170.682343 186.779037,170.473007 189.329895,170.140640 
	C189.144775,172.950607 189.420029,175.884827 188.700485,178.550552 
	C183.690445,197.111420 178.451996,215.610504 173.341736,234.144562 
	C172.265442,238.048096 171.416779,242.014389 170.253006,246.312515 
z"/>
<path fill="#0BFADF" opacity="1.000000" stroke="none" 
	d="
M269.915131,298.966248 
	C269.951904,298.788910 269.988708,298.611603 270.275024,298.067688 
	C270.703979,297.520203 270.830841,297.307861 270.905182,297.064148 
	C270.905182,297.064148 270.908417,296.903778 271.160614,296.802917 
	C271.628754,296.537689 271.789520,296.330536 271.895142,296.080566 
	C271.895142,296.080566 271.904999,295.919830 272.281738,295.861542 
	C273.092346,295.184326 273.526215,294.565369 273.960083,293.946442 
	C279.951447,284.758057 288.763794,278.679199 298.294525,274.195099 
	C309.250275,269.040527 320.907776,265.377563 332.260620,261.067047 
	C332.994690,260.788361 333.730011,260.512909 334.734344,260.134308 
	C326.705444,229.758255 318.729370,199.582123 310.578339,168.744034 
	C316.862549,170.411606 322.014832,171.713409 327.112457,173.202362 
	C327.872742,173.424438 328.740906,174.433167 328.945099,175.234421 
	C334.350006,196.445862 339.600677,217.696747 345.043335,238.898376 
	C347.726929,249.352264 350.820007,259.700684 353.543854,270.144806 
	C354.174194,272.561798 354.052124,275.175018 354.292480,277.879974 
	C326.356903,278.323181 300.158142,282.038605 277.091309,299.096924 
	C276.362915,299.529877 276.192688,299.752197 276.073334,300.013519 
	C276.073334,300.013519 276.076019,300.067688 275.863159,300.162872 
	C275.407379,300.401794 275.222473,300.599762 275.095612,300.851959 
	C274.910675,300.897461 274.725739,300.942993 274.079773,301.155579 
	C273.387726,301.493744 273.213135,301.710266 273.094910,301.972290 
	C272.878204,302.286438 272.661530,302.600555 272.009583,303.112854 
	C271.369263,303.467987 271.219421,303.666626 271.124725,303.906952 
	C271.124725,303.906952 271.116180,304.078979 270.682007,304.032837 
	C269.474121,303.011200 268.700378,302.035736 267.926605,301.060242 
	C267.926605,301.060242 267.921692,300.905518 268.171844,300.798828 
	C268.637817,300.522797 268.799652,300.312012 268.907501,300.059753 
	C268.907501,300.059753 268.906799,299.923126 269.157837,299.797852 
	C269.635315,299.478485 269.804077,299.243042 269.915131,298.966248 
z"/>
<path fill="#0DF9DF" opacity="1.000000" stroke="none" 
	d="
M345.050232,213.862396 
	C342.914825,205.186478 340.820221,196.928833 338.427795,187.497070 
	C343.920349,188.975586 348.334045,189.863922 352.473511,191.462402 
	C353.699768,191.935959 354.481232,194.324448 354.912292,195.979767 
	C361.363617,220.753311 367.667938,245.565186 374.128845,270.336243 
	C376.725311,280.291107 379.617462,290.168884 382.614044,300.941101 
	C342.622070,296.040955 303.654724,293.865082 267.135193,313.665039 
	C293.948822,287.442444 327.120056,282.105774 363.734955,284.295563 
	C357.373016,260.404144 351.232025,237.342422 345.050232,213.862396 
z"/>
<path fill="#0DF9DE" opacity="1.000000" stroke="none" 
	d="
M130.319748,258.426147 
	C135.696671,237.974518 140.914581,217.900757 146.024689,197.799606 
	C147.729660,191.092911 153.670944,187.595230 162.934219,188.445587 
	C154.621109,220.092651 146.325653,251.672577 137.828583,284.019958 
	C146.376068,284.019958 154.614594,283.622772 162.803070,284.094360 
	C187.435394,285.513000 210.223526,292.313080 229.541122,308.393799 
	C230.503113,309.194580 230.653305,310.970551 231.181488,312.292450 
	C229.896820,312.119476 228.320892,312.366730 227.372116,311.709106 
	C216.766907,304.358734 204.493256,301.567413 192.155792,300.162415 
	C178.095245,298.561096 163.844208,298.129028 149.677261,298.148224 
	C140.733322,298.160339 131.793152,299.942322 122.847359,300.893433 
	C121.712700,301.014069 120.554138,300.909943 119.378998,300.909943 
	C122.998047,286.717499 126.558357,272.755402 130.319748,258.426147 
z"/>
<path fill="#08FBDF" opacity="1.000000" stroke="none" 
	d="
M289.534668,177.676819 
	C273.242523,188.610306 257.845062,176.526550 256.869141,164.409607 
	C256.158966,155.591812 259.818817,147.867020 267.267944,144.008499 
	C274.837769,140.087509 285.243286,141.733780 290.880005,147.465561 
	C297.479279,154.176147 298.898407,162.504120 294.589630,170.688202 
	C293.313293,173.112427 291.451263,175.228287 289.534668,177.676819 
z"/>
<path fill="#0DF9DE" opacity="1.000000" stroke="none" 
	d="
M267.616943,301.201752 
	C268.700378,302.035736 269.474121,303.011200 270.595947,304.033875 
	C267.761169,307.619263 264.578339,311.157471 261.395538,314.695679 
	C260.907684,314.274902 260.419861,313.854126 259.932007,313.433350 
	C262.390442,309.403320 264.848877,305.373291 267.616943,301.201752 
z"/>
<path fill="#0DF9DE" opacity="1.000000" stroke="none" 
	d="
M273.689087,294.041016 
	C273.526215,294.565369 273.092346,295.184326 272.362244,295.861694 
	C272.516693,295.325287 272.967377,294.730438 273.689087,294.041016 
z"/>
<path fill="#0DF9DE" opacity="1.000000" stroke="none" 
	d="
M271.330444,303.872986 
	C271.219421,303.666626 271.369263,303.467987 271.738983,303.225037 
	C271.930389,303.450775 271.807922,303.684082 271.330444,303.872986 
z"/>
<path fill="#0DF9DE" opacity="1.000000" stroke="none" 
	d="
M273.319122,301.928192 
	C273.213135,301.710266 273.387726,301.493744 273.802490,301.224365 
	C273.980072,301.461395 273.832428,301.714081 273.319122,301.928192 
z"/>
<path fill="#0DF9DE" opacity="1.000000" stroke="none" 
	d="
M275.343475,300.892090 
	C275.222473,300.599762 275.407379,300.401794 275.836761,300.169098 
	C275.879242,300.364166 275.735291,300.648193 275.343475,300.892090 
z"/>
<path fill="#0DF9DE" opacity="1.000000" stroke="none" 
	d="
M268.689178,300.101471 
	C268.799652,300.312012 268.637817,300.522797 268.248901,300.791687 
	C268.049988,300.558685 268.181671,300.309326 268.689178,300.101471 
z"/>
<path fill="#0DF9DE" opacity="1.000000" stroke="none" 
	d="
M276.295105,299.956390 
	C276.192688,299.752197 276.362915,299.529877 276.765472,299.246826 
	C276.957642,299.485779 276.814301,299.736481 276.295105,299.956390 
z"/>
<path fill="#0DF9DE" opacity="1.000000" stroke="none" 
	d="
M269.687744,299.036011 
	C269.804077,299.243042 269.635315,299.478485 269.225952,299.792786 
	C269.014099,299.556976 269.153198,299.287903 269.687744,299.036011 
z"/>
<path fill="#0DF9DE" opacity="1.000000" stroke="none" 
	d="
M270.683868,297.108551 
	C270.830841,297.307861 270.703979,297.520203 270.377319,297.816040 
	C270.055969,297.596344 270.133453,297.337006 270.683868,297.108551 
z"/>
<path fill="#0DF9DE" opacity="1.000000" stroke="none" 
	d="
M271.677582,296.116089 
	C271.789520,296.330536 271.628754,296.537689 271.240723,296.799377 
	C271.044647,296.567169 271.175110,296.318787 271.677582,296.116089 
z"/>
</svg>