<?xml version="1.0" encoding="UTF-8"?>
<svg version="1.1" xmlns="http://www.w3.org/2000/svg" width="500" height="500">
<path d="M0 0 C7.18584976 5.09918954 12.33539471 11.65815572 14.03125 20.44140625 C14.17487098 22.47971934 14.25171044 24.52325314 14.28125 26.56640625 C14.30703125 27.62085938 14.3328125 28.6753125 14.359375 29.76171875 C13.52771199 39.0882254 9.45001534 47.27400383 5.46875 55.62890625 C-1.25593751 69.78845036 -5.21513689 83.21603921 0.09375 98.56640625 C2.36770326 104.19622217 4.95351125 109.69074251 7.57104492 115.16821289 C12.138567 124.75457323 14.04037 133.64485859 14.71875 144.19140625 C14.77869141 144.95839844 14.83863281 145.72539062 14.90039062 146.515625 C15.02686983 148.48731448 15.03750232 150.46567416 15.03125 152.44140625 C14.37125 153.10140625 13.71125 153.76140625 13.03125 154.44140625 C12.55816406 153.4978125 12.08507812 152.55421875 11.59765625 151.58203125 C7.14845289 142.87627514 2.25064293 135.03335486 -3.96875 127.44140625 C-4.65453125 126.590625 -5.3403125 125.73984375 -6.046875 124.86328125 C-19.58680631 108.91625104 -38.64381145 97.33106831 -58.96875 92.44140625 C-58.37419856 85.53328471 -57.02495119 79.12799955 -55.21875 72.44140625 C-54.97898438 71.52746094 -54.73921875 70.61351562 -54.4921875 69.671875 C-53.15592792 64.63679381 -51.736651 59.63231948 -50.24684143 54.64047241 C-47.00217606 43.76436738 -44.12572943 32.80297914 -41.28125 21.81640625 C-40.55158992 19.00659824 -39.82115249 16.19699503 -39.08988953 13.38760376 C-38.6402578 11.6593469 -38.19163133 9.93082806 -37.74421692 8.20199585 C-36.54817008 3.59540967 -35.29647506 -0.98816291 -33.96875 -5.55859375 C-22.69486614 -8.79461597 -9.86893466 -5.98929912 0 0 Z " fill="#03FDE0" transform="translate(232.96875,162.55859375)"/>
<path d="M0 0 C1.2684375 0.0009668 1.2684375 0.0009668 2.5625 0.00195312 C7.16134325 0.03459476 7.16134325 0.03459476 9.375 0.1875 C10.42445801 0.21372437 10.42445801 0.21372437 11.49511719 0.24047852 C13.375 1.1875 13.375 1.1875 14.67041016 4.30517578 C15.06103646 5.70121137 15.43250223 7.10269007 15.7890625 8.5078125 C15.99536285 9.26369659 16.20166321 10.01958069 16.41421509 10.79837036 C16.85510135 12.42139134 17.28826312 14.04652643 17.71447754 15.67346191 C18.36635808 18.1546077 19.04202905 20.62799695 19.72558594 23.10058594 C20.86667996 27.24125561 21.97974754 31.3887241 23.07958984 35.54052734 C23.5334633 37.2479246 23.99126241 38.95428231 24.45263672 40.65966797 C25.13020241 43.1642496 25.79685795 45.67150111 26.4609375 48.1796875 C26.66915131 48.94207733 26.87736511 49.70446716 27.09188843 50.48995972 C28.48921016 55.84486952 28.48921016 55.84486952 27.375 59.1875 C24.5234375 60.29296875 24.5234375 60.29296875 20.75 61.375 C-10.00150142 70.88478257 -29.68110884 93.87508215 -44.625 121.1875 C-46.10643456 118.22463089 -45.0037488 116.37993977 -44.1875 113.1875 C-41.13236434 99.61975708 -41.4248624 84.4415038 -43.625 70.75 C-46.42096669 53.01499964 -47.37734873 34.09996009 -36.8125 18.875 C-35.77548913 17.62425406 -34.711889 16.39515444 -33.625 15.1875 C-33.02816406 14.49914062 -32.43132812 13.81078125 -31.81640625 13.1015625 C-27.06797094 7.96140517 -22.09696437 4.80468935 -15.625 2.1875 C-14.73296875 1.81753906 -13.8409375 1.44757813 -12.921875 1.06640625 C-8.55753812 -0.09707218 -4.49393493 -0.06568059 0 0 Z " fill="#02FDE0" transform="translate(297.625,195.8125)"/>
<path d="M0 0 C1.5016453 0.26155707 3.0012433 0.53486886 4.5 0.8125 C5.3353125 0.96332031 6.170625 1.11414063 7.03125 1.26953125 C8.0109375 1.51058594 8.990625 1.75164062 10 2 C10.64231064 2.15082535 11.28462128 2.3016507 11.94639587 2.45704651 C14.16698475 3.1079936 16.0155357 3.80278306 18 5 C19.39684659 7.81318123 20.04994634 9.70220553 20.66015625 12.6953125 C20.85247833 13.49141434 21.04480042 14.28751617 21.24295044 15.10774231 C21.88056597 17.77386398 22.47057028 20.44839829 23.0625 23.125 C23.73634626 25.99147427 24.42246416 28.85485918 25.10853577 31.71842957 C25.60081619 33.77802279 26.08892927 35.8386158 26.57322693 37.90010071 C28.58678481 46.43648339 30.78094352 54.92024187 33.0390625 63.39453125 C33.21112906 64.04110435 33.38319561 64.68767746 33.5604763 65.35384369 C35.10785665 71.16622553 36.6626667 76.97661546 38.21780396 82.78692627 C39.18489801 86.40754305 40.14574559 90.02976737 41.10546875 93.65234375 C41.54525558 95.28705376 41.54525558 95.28705376 41.993927 96.95478821 C42.25914154 97.95833847 42.52435608 98.96188873 42.79760742 99.99584961 C43.03090256 100.86986923 43.26419769 101.74388885 43.50456238 102.64439392 C44 105 44 105 44 109 C43.31711914 109.03963867 42.63423828 109.07927734 41.93066406 109.12011719 C16.94871583 110.63493549 -8.94412896 113.04512339 -30 128 C-30.79148437 128.55945313 -31.58296875 129.11890625 -32.3984375 129.6953125 C-39.81572156 135.28752351 -45.86054396 142.07992584 -52 149 C-52.33 148.34 -52.66 147.68 -53 147 C-51.85761994 144.64749767 -50.66661482 142.47842079 -49.3125 140.25 C-48.90894287 139.58476318 -48.50538574 138.91952637 -48.08959961 138.23413086 C-36.2344676 119.28607002 -20.00082555 106.83701474 0.5 98.25 C1.13881104 97.98050537 1.77762207 97.71101074 2.43579102 97.43334961 C9.11863418 94.74481142 16.06395053 92.90925178 23 91 C21.18768169 84.10372983 19.37473316 77.20762563 17.56110477 70.31169987 C16.69468075 67.01718547 15.82850264 63.72260679 14.96286011 60.42788696 C10.13677228 42.04013781 10.13677228 42.04013781 5.22265625 23.67578125 C5.02940765 22.95966675 4.83615906 22.24355225 4.63705444 21.5057373 C3.79252425 18.37813767 2.94280135 15.252129 2.08398438 12.12841797 C1.79974609 11.07928223 1.51550781 10.03014648 1.22265625 8.94921875 C0.98297119 8.07612061 0.74328613 7.20302246 0.49633789 6.3034668 C0 4 0 4 0 0 Z " fill="#08FADF" transform="translate(310,168)"/>
<path d="M0 0 C-2.82117402 12.51441157 -6.07058843 24.8893568 -9.45962524 37.26098633 C-10.90671714 42.54460378 -12.3441847 47.83083558 -13.78125 53.1171875 C-14.0615657 54.14789368 -14.34188141 55.17859985 -14.63069153 56.24053955 C-17.85948742 68.1330972 -20.96487766 80.05653032 -24 92 C-23.29657471 92.1131958 -22.59314941 92.2263916 -21.8684082 92.34301758 C1.68710516 96.34248297 25.85439433 108.66200253 40.30859375 128.10546875 C42.61477063 131.35516744 44.81178191 134.66992238 47 138 C47.56589844 138.82757813 48.13179688 139.65515625 48.71484375 140.5078125 C49.89739575 142.28327839 50.96400759 144.13521366 52 146 C51.67 146.99 51.34 147.98 51 149 C50.2265625 148.14277344 49.453125 147.28554688 48.65625 146.40234375 C27.13675261 122.6906603 3.05118161 112.95970312 -28.8125 110.3125 C-30.29499567 110.1824793 -31.77741842 110.05162442 -33.25976562 109.91992188 C-36.839058 109.60369856 -40.41919249 109.29864069 -44 109 C-43.61771832 101.21751415 -41.84333062 94.07041393 -39.70666504 86.59890747 C-38.67825214 82.99843716 -37.67931085 79.38980082 -36.6796875 75.78125 C-36.46530029 75.00882462 -36.25091309 74.23639923 -36.0300293 73.44056702 C-32.56214931 60.87436461 -29.42522911 48.21946415 -26.23379517 35.58091736 C-25.58792641 33.04242918 -24.92841157 30.50777214 -24.26757812 27.97314453 C-23.39188522 24.60106217 -22.59528429 21.22119227 -21.84179688 17.81982422 C-21.45221334 16.18057122 -21.06225522 14.5414072 -20.671875 12.90234375 C-20.520672 12.14812637 -20.36946899 11.393909 -20.21368408 10.61683655 C-19.48562551 7.6819911 -18.82686559 5.50078027 -16.16467285 3.88845825 C-14.12324468 3.11339575 -12.11656722 2.53025465 -10 2 C-8.9275 1.608125 -7.855 1.21625 -6.75 0.8125 C-4 0 -4 0 0 0 Z " fill="#09FADF" transform="translate(190,168)"/>
<path d="M0 0 C2.37129387 0.24700978 4.65547752 0.59061549 7 1 C8.30195313 1.18651123 9.60390625 1.37302246 10.9453125 1.56518555 C14.16634197 2.83339137 14.90442869 3.80017673 16.42089844 6.97085571 C17.74896274 11.16547227 18.84072909 15.37030077 19.875 19.64453125 C20.28983098 21.25066451 20.70769611 22.85601683 21.12841797 24.46061707 C22.23355554 28.70804817 23.29812781 32.96464252 24.35424805 37.2244873 C25.40578938 41.43880256 26.4928509 45.64387923 27.578125 49.84960938 C29.06097317 55.60772356 30.53074289 61.36885139 31.98321533 67.13470268 C33.73985892 74.10455996 35.53285597 81.06200373 37.40625 88.00146484 C37.59597382 88.70506858 37.78569763 89.40867231 37.98117065 90.13359737 C38.8680508 93.41648511 39.76205879 96.6971372 40.66455078 99.9757843 C40.97376465 101.11388046 41.28297852 102.25197662 41.6015625 103.42456055 C41.87307129 104.41103073 42.14458008 105.39750092 42.42431641 106.41386414 C43 109 43 109 43 113 C42.37416016 112.94086426 41.74832031 112.88172852 41.10351562 112.82080078 C12.07434546 109.96079461 12.07434546 109.96079461 -17 111 C-17.84320801 111.08910645 -18.68641602 111.17821289 -19.55517578 111.27001953 C-39.20829503 113.45369945 -58.03992319 117.66721337 -74 130 C-74.66 129.67 -75.32 129.34 -76 129 C-59.77607708 108.50662368 -33.32211956 98.95298127 -8 96 C-2.41245034 95.77409205 3.1595247 95.80841681 8.75 95.875 C10.23697307 95.88506027 11.72395281 95.89418068 13.2109375 95.90234375 C16.80743323 95.924092 20.403672 95.95844982 24 96 C23.69932617 94.85629944 23.39865234 93.71259888 23.08886719 92.53424072 C20.25825865 81.76460247 17.43278862 70.99362766 14.61236572 60.22131729 C13.16213628 54.6829937 11.71008997 49.14515973 10.25390625 43.60839844 C8.84912111 38.26679647 7.44908936 32.92396957 6.05236816 27.5802536 C5.51820576 25.54003136 4.98232156 23.50025914 4.44470215 21.46094513 C3.6929696 18.60826759 2.94733153 15.75406275 2.203125 12.89941406 C1.97870728 12.05352722 1.75428955 11.20764038 1.52307129 10.33612061 C1.32113159 9.55651978 1.11919189 8.77691895 0.91113281 7.97369385 C0.64565643 6.96156515 0.64565643 6.96156515 0.37481689 5.92898941 C0 4 0 4 0 0 Z " fill="#08FBDF" transform="translate(338,187)"/>
<path d="M0 0 C-3.4504941 16.89667141 -8.00597118 33.51841872 -12.44390869 50.17529297 C-13.27196028 53.28716558 -14.09608486 56.40007228 -14.92012882 59.51300812 C-15.72267461 62.54361517 -16.52696882 65.57375594 -17.33184624 68.60374451 C-17.71211872 70.03558109 -18.09202858 71.46751403 -18.47154427 72.89955139 C-20.5241039 80.63823343 -22.6281614 88.35192397 -25 96 C-23.71089722 95.9685791 -23.71089722 95.9685791 -22.39575195 95.93652344 C11.95775834 95.21189162 43.29407969 99.12077268 70 123 C71.6794286 124.65380625 73.34965022 126.31717465 75 128 C74.67 128.66 74.34 129.32 74 130 C73.20078125 129.48050781 72.4015625 128.96101562 71.578125 128.42578125 C49.62169306 114.48396238 25.6754939 110.6002132 -0.02636719 110.73925781 C-2.36680171 110.7499625 -4.70646367 110.73929277 -7.046875 110.7265625 C-16.5462004 110.71911575 -25.80664418 111.37148066 -35.22900391 112.57128906 C-38.20919334 112.91009604 -41.00958475 113.09241901 -44 113 C-38.20701599 90.12292406 -32.18768744 67.30675362 -26.125 44.5 C-25.93552418 43.78703766 -25.74604836 43.07407532 -25.55083084 42.33950806 C-24.26662015 37.50733245 -22.98132879 32.67544536 -21.6953125 27.84375 C-21.36745255 26.61148682 -21.03959259 25.37922363 -20.70179749 24.10961914 C-20.08940644 21.81111004 -19.47153588 19.51405124 -18.847229 17.21875 C-18.28432276 15.0801848 -17.75992918 12.93109544 -17.27532959 10.7734375 C-17.04380188 9.78279297 -16.81227417 8.79214844 -16.57373047 7.77148438 C-16.38519501 6.90084351 -16.19665955 6.03020264 -16.00241089 5.13317871 C-15 3 -15 3 -12.62380981 1.64196777 C-8.35878447 0.22621334 -4.46553064 -0.03215629 0 0 Z " fill="#08FADF" transform="translate(162,187)"/>
<path d="M0 0 C5.19039543 2.97967145 8.81220493 7.87411478 10.6875 13.5 C11.73862621 20.84286735 9.70732272 26.37087469 5.6875 32.5 C1.30126198 36.99870566 -3.50212931 38.55616646 -9.6875 38.875 C-16.292212 38.68629394 -21.15042269 36.03633351 -25.6875 31.3125 C-29.27477833 26.71568706 -30.55137514 21.97242891 -30.15234375 16.171875 C-29.06992509 9.99263061 -26.61863694 5.03971428 -21.59375 1.1796875 C-14.98335415 -2.69443794 -7.0356669 -3.01336402 0 0 Z " fill="#05FCDF" transform="translate(285.3125,142.5)"/>
<path d="M0 0 C-1.65 1.98 -3.3 3.96 -5 6 C-4.34 6 -3.68 6 -3 6 C-3 6.99 -3 7.98 -3 9 C-2.34 9.33 -1.68 9.66 -1 10 C-1 10.66 -1 11.32 -1 12 C-2.01578125 12.47308594 -3.0315625 12.94617188 -4.078125 13.43359375 C-19.52425924 20.78063844 -30.74354263 30.23662979 -42 43 C-42.33 42.34 -42.66 41.68 -43 41 C-41.85761994 38.64749767 -40.66661482 36.47842079 -39.3125 34.25 C-38.90894287 33.58476318 -38.50538574 32.91952637 -38.08959961 32.23413086 C-31.18191071 21.19356973 -22.7005393 11.49398038 -12 4 C-11.25492187 3.46375 -10.50984375 2.9275 -9.7421875 2.375 C-4.11938894 -1.44269348 -4.11938894 -1.44269348 0 0 Z " fill="#0DF7DE" transform="translate(300,274)"/>
<path d="M0 0 C13.30050394 1.57344224 27.03979937 17.18871063 34.8125 27.015625 C38.53692471 32.09680443 42.24319139 37.3251659 45 43 C44.67 43.99 44.34 44.98 44 46 C43.2265625 45.14277344 42.453125 44.28554688 41.65625 43.40234375 C32.96531665 33.82606709 25.02476311 26.23583452 13.54589844 20.10644531 C12.87461914 19.74647461 12.20333984 19.38650391 11.51171875 19.015625 C10.90803467 18.69883789 10.30435059 18.38205078 9.68237305 18.05566406 C7.06037738 16.41040078 5.31578201 14.86840053 4.25 11.9375 C4 10 4 10 5 8 C5.99 7.67 6.98 7.34 8 7 C8.33 6.34 8.66 5.68 9 5 C7.35 4.67 5.7 4.34 4 4 C4 3.34 4 2.68 4 2 C2.68 2 1.36 2 0 2 C0 1.34 0 0.68 0 0 Z " fill="#0DF7DD" transform="translate(197,271)"/>
<path d="M0 0 C14.69263409 4.16291299 26.42292733 13.21479173 37 24 C36.67 24.66 36.34 25.32 36 26 C35.20078125 25.48050781 34.4015625 24.96101563 33.578125 24.42578125 C16.77338973 13.75516883 -0.3882366 9.36211413 -20 7 C-20 6.67 -20 6.34 -20 6 C-19.00097656 5.95101563 -18.00195312 5.90203125 -16.97265625 5.8515625 C-15.68230469 5.77679688 -14.39195312 5.70203125 -13.0625 5.625 C-11.77472656 5.55539062 -10.48695313 5.48578125 -9.16015625 5.4140625 C-8.11730469 5.27742188 -7.07445312 5.14078125 -6 5 C-5.67 4.34 -5.34 3.68 -5 3 C-2.4375 2.375 -2.4375 2.375 0 2 C0 1.34 0 0.68 0 0 Z " fill="#18F3DB" transform="translate(200,291)"/>
<path d="M0 0 C0.66 0.33 1.32 0.66 2 1 C0.35 2.98 -1.3 4.96 -3 7 C-1.9275 6.46375 -0.855 5.9275 0.25 5.375 C4 4 4 4 6.234375 4.9140625 C7.10835938 5.45160156 7.10835938 5.45160156 8 6 C7.07058594 6.64066406 6.14117187 7.28132813 5.18359375 7.94140625 C-1.38832752 12.51927924 -7.67676453 16.95704136 -13 23 C-13.97453125 24.09248047 -13.97453125 24.09248047 -14.96875 25.20703125 C-16.66172113 27.12506005 -18.33801576 29.05512482 -20 31 C-20.33 30.34 -20.66 29.68 -21 29 C-19.85774399 26.64775312 -18.66541947 24.47881411 -17.3125 22.25 C-16.91619385 21.59056396 -16.5198877 20.93112793 -16.11157227 20.25170898 C-11.51161154 12.85039419 -5.85221085 6.42653949 0 0 Z " fill="#21EEDB" transform="translate(278,286)"/>
<path d="M0 0 C4.85806505 4.41642278 8.36228511 9.55996274 12 15 C12.5259375 15.76570313 13.051875 16.53140625 13.59375 17.3203125 C14.0578125 18.01898438 14.521875 18.71765625 15 19.4375 C15.4125 20.05496094 15.825 20.67242187 16.25 21.30859375 C17 23 17 23 16 26 C15.2265625 25.14277344 14.453125 24.28554688 13.65625 23.40234375 C8.53944659 17.77114398 3.48829867 12.23759846 -2.37890625 7.3671875 C-4.01244456 5.98950459 -5.51013827 4.53061783 -7 3 C-4.525 3.99 -4.525 3.99 -2 5 C-1.34 3.35 -0.68 1.7 0 0 Z " fill="#17F0DA" transform="translate(225,291)"/>
<path d="M0 0 C0 0.66 0 1.32 0 2 C-0.99 2.495 -0.99 2.495 -2 3 C-2.33 3.99 -2.66 4.98 -3 6 C-0.36 5.67 2.28 5.34 5 5 C2.00127921 6.9991472 -0.54716091 7.94968245 -3.9375 9.125 C-11.08818696 11.80048175 -16.83398113 15.5226926 -23 20 C-23.66 19.67 -24.32 19.34 -25 19 C-19.74505398 12.36217345 -9.2594905 0 0 0 Z " fill="#22EDD9" transform="translate(287,297)"/>
<path d="M0 0 C3 2 3 2 4 5 C6.31 5.33 8.62 5.66 11 6 C11 5.34 11 4.68 11 4 C15.95 4 20.9 4 26 4 C26 4.33 26 4.66 26 5 C14.35619131 6.89844707 2.71775411 8.62619435 -9 10 C-8.67 8.68 -8.34 7.36 -8 6 C-7.34 6 -6.68 6 -6 6 C-6 5.01 -6 4.02 -6 3 C-4.02 2.01 -2.04 1.02 0 0 Z " fill="#1CF1DC" transform="translate(293,293)"/>
<path d="M0 0 C10.42987523 3.93614422 18.05817989 11.44788003 26 19 C25.67 19.66 25.34 20.32 25 21 C24.14277344 20.45730469 23.28554687 19.91460937 22.40234375 19.35546875 C21.24755768 18.6325539 20.09260054 17.90991227 18.9375 17.1875 C18.37611328 16.83107422 17.81472656 16.47464844 17.23632812 16.10742188 C13.28348184 13.64536333 9.31912546 11.74415639 5 10 C5.99 8.68 6.98 7.36 8 6 C6.2984375 5.3503125 6.2984375 5.3503125 4.5625 4.6875 C3.386875 4.130625 2.21125 3.57375 1 3 C0.67 2.01 0.34 1.02 0 0 Z " fill="#25EBD8" transform="translate(211,296)"/>
<path d="M0 0 C0.66 0.33 1.32 0.66 2 1 C1.35852041 3.81355932 0.71204485 6.62580239 0.0625 9.4375 C-0.11990234 10.23994141 -0.30230469 11.04238281 -0.49023438 11.86914062 C-1.88671875 17.88671875 -1.88671875 17.88671875 -3 19 C-3.20604085 20.32781878 -3.3662959 21.66295895 -3.5 23 C-3.88888889 26.88888889 -3.88888889 26.88888889 -5 28 C-5.07244053 30.01964199 -5.08377188 32.04167124 -5.0625 34.0625 C-5.05347656 35.16722656 -5.04445312 36.27195313 -5.03515625 37.41015625 C-5.02355469 38.26480469 -5.01195312 39.11945313 -5 40 C-5.99 40.495 -5.99 40.495 -7 41 C-7.99 40.67 -8.98 40.34 -10 40 C-8.60764213 31.08681764 -6.32508068 22.48027884 -3.875 13.8125 C-3.49824401 12.46562168 -3.12193905 11.11861711 -2.74609375 9.77148438 C-1.83513621 6.51305933 -0.91968611 3.25597004 0 0 Z " fill="#2AECD5" transform="translate(147,190)"/>
<path d="M0 0 C3.28991365 4.93487047 3.13794637 9.23173345 3.09765625 15.046875 C3.0962413 15.81807678 3.09482635 16.58927856 3.09336853 17.3838501 C3.08778534 19.83927338 3.07523595 22.29460442 3.0625 24.75 C3.05748283 26.41796743 3.0529203 28.08593629 3.04882812 29.75390625 C3.03782141 33.83597287 3.02056836 37.91797081 3 42 C3.66 42 4.32 42 5 42 C3.58707905 46.8274799 1.57025846 50.7162359 -1 55 C-2.48143456 52.03713089 -1.3787488 50.19243977 -0.5625 47 C1.11447532 39.61514599 1.27638883 32.3650898 1.25 24.8125 C1.24669678 23.73291016 1.24339355 22.65332031 1.23999023 21.54101562 C1.15708649 14.32454708 0.69348901 7.18244958 0 0 Z " fill="#34E5D5" transform="translate(254,262)"/>
<path d="M0 0 C1.36125 0.8971875 1.36125 0.8971875 2.75 1.8125 C0.75 2.8125 0.75 2.8125 -1.4921875 2.0703125 C-2.36101562 1.69648438 -3.22984375 1.32265625 -4.125 0.9375 C-12.44265457 -2.6130212 -19.59895408 -3.34845909 -28.25 -0.1875 C-30.60959458 1.30736846 -30.60959458 1.30736846 -32.25 2.8125 C-31.92 0.5025 -31.59 -1.8075 -31.25 -4.1875 C-21.0840504 -7.10550405 -9.13086129 -5.17292746 0 0 Z " fill="#20F0D9" transform="translate(230.25,161.1875)"/>
<path d="M0 0 C2.2389766 3.35846491 3.12872154 6.58891321 4.125 10.4375 C4.30675781 11.10587891 4.48851562 11.77425781 4.67578125 12.46289062 C5.55418382 15.7948763 6 18.52536772 6 22 C-0.67728333 21.41339754 -7.34063095 20.76418989 -14 20 C-10.5858765 17.72391767 -9.84289339 17.83511023 -5.9375 18.3125 C-5.05964844 18.41175781 -4.18179687 18.51101563 -3.27734375 18.61328125 C-1 19 -1 19 1 20 C2.3271261 16.0186217 2.06915913 12.14954773 2 8 C1.34 8 0.68 8 0 8 C0 5.36 0 2.72 0 0 Z " fill="#23EFDA" transform="translate(375,278)"/>
<path d="M0 0 C0.33 0.99 0.66 1.98 1 3 C1.62567871 2.99476318 2.25135742 2.98952637 2.89599609 2.98413086 C5.72232057 2.96338382 8.54862905 2.95034714 11.375 2.9375 C12.85226563 2.92493164 12.85226563 2.92493164 14.359375 2.91210938 C15.77089844 2.90727539 15.77089844 2.90727539 17.2109375 2.90234375 C18.51490479 2.89448853 18.51490479 2.89448853 19.84521484 2.88647461 C22 3 22 3 24 4 C25.37342831 4.0689472 26.75002102 4.08467708 28.125 4.0625 C30.043125 4.0315625 30.043125 4.0315625 32 4 C32.495 5.485 32.495 5.485 33 7 C33.99 7.33 34.98 7.66 36 8 C18.18 6.515 18.18 6.515 0 5 C0 3.35 0 1.7 0 0 Z " fill="#2DEFDB" transform="translate(146,272)"/>
<path d="M0 0 C-0.94359375 0.45439453 -0.94359375 0.45439453 -1.90625 0.91796875 C-12.74653111 5.50454201 -12.74653111 5.50454201 -20 14 C-20.99 14 -21.98 14 -23 14 C-23.103125 14.639375 -23.20625 15.27875 -23.3125 15.9375 C-23.539375 16.618125 -23.76625 17.29875 -24 18 C-24.99 18.33 -25.98 18.66 -27 19 C-27 20.32 -27 21.64 -27 23 C-27.66 23 -28.32 23 -29 23 C-29 23.66 -29 24.32 -29 25 C-29.66 25 -30.32 25 -31 25 C-27.4934494 15.0647733 -20.01748084 6.73743551 -10.625 2 C-3.61445783 -1.20481928 -3.61445783 -1.20481928 0 0 Z " fill="#2FE8D1" transform="translate(288,198)"/>
<path d="M0 0 C2.125 0.375 2.125 0.375 4 1 C3.41187609 4.31892629 2.37260416 6.02678399 0.05859375 8.453125 C-0.52470703 9.071875 -1.10800781 9.690625 -1.70898438 10.328125 C-2.32064453 10.96234375 -2.93230469 11.5965625 -3.5625 12.25 C-4.17802734 12.8996875 -4.79355469 13.549375 -5.42773438 14.21875 C-6.94543158 15.81880287 -8.46957115 17.41213644 -10 19 C-10.33 18.34 -10.66 17.68 -11 17 C-9.63578341 14.41952958 -8.22496214 11.97381127 -6.6875 9.5 C-6.27048828 8.81035156 -5.85347656 8.12070312 -5.42382812 7.41015625 C-3.74886815 4.66931266 -2.28098311 2.28098311 0 0 Z " fill="#25ECDB" transform="translate(268,298)"/>
<path d="M0 0 C2.31 0.33 4.62 0.66 7 1 C6.01 1.66 5.02 2.32 4 3 C3.26393501 6.56769552 3.26393501 6.56769552 3 10 C3.66 10 4.32 10 5 10 C5.144375 11.134375 5.28875 12.26875 5.4375 13.4375 C5.61171478 16.80777201 5.61171478 16.80777201 7 18 C7.14115161 20.67058851 7.04247107 23.32432238 7 26 C7.66 26.33 8.32 26.66 9 27 C9 29.64 9 32.28 9 35 C6.00603876 29.5790784 4.90270648 23.4555712 3.375 17.5 C2.88773437 15.64568359 2.88773437 15.64568359 2.390625 13.75390625 C2.08382813 12.56667969 1.77703125 11.37945312 1.4609375 10.15625 C1.04013916 8.52913086 1.04013916 8.52913086 0.61083984 6.86914062 C0 4 0 4 0 0 Z " fill="#27F0DA" transform="translate(338,187)"/>
<path d="M0 0 C0.33 0.99 0.66 1.98 1 3 C0.34 3 -0.32 3 -1 3 C-1 3.99 -1 4.98 -1 6 C-1.86625 5.95875 -2.7325 5.9175 -3.625 5.875 C-7.12358468 6.00457721 -9.74551597 6.76019656 -13 8 C-12.34 6.68 -11.68 5.36 -11 4 C-10.34 4 -9.68 4 -9 4 C-9 2.68 -9 1.36 -9 0 C-5.67465243 -1.10844919 -3.37817425 -0.84454356 0 0 Z " fill="#04FBE0" transform="translate(288,285)"/>
<path d="M0 0 C2.15465933 2.15465933 2.63689477 3.40049281 3.5625 6.25 C3.81128906 6.99765625 4.06007812 7.7453125 4.31640625 8.515625 C5.87557036 14.18207285 6.31189357 19.91057199 6.6875 25.75 C6.74744141 26.51699219 6.80738281 27.28398437 6.86914062 28.07421875 C6.99561983 30.04590823 7.00625232 32.02426791 7 34 C6.34 34.66 5.68 35.32 5 36 C3.35 32.37 1.7 28.74 0 25 C0.66 25 1.32 25 2 25 C2 25.66 2 26.32 2 27 C2.99 27 3.98 27 5 27 C4.10875349 18.94732562 3.12961575 11.53952884 0 4 C0 2.68 0 1.36 0 0 Z " fill="#37E4D2" transform="translate(241,281)"/>
<path d="M0 0 C0.66 0 1.32 0 2 0 C2 0.99 2 1.98 2 3 C2.66 3 3.32 3 4 3 C6.44064587 8.64399358 6.19289099 13.97751478 6 20 C6.66 20 7.32 20 8 20 C8 22.64 8 25.28 8 28 C6.39199972 25.01891484 5.37814454 22.13307998 4.4921875 18.8671875 C4.22792969 17.89652344 3.96367187 16.92585938 3.69140625 15.92578125 C3.42199219 14.91902344 3.15257812 13.91226563 2.875 12.875 C2.59785156 11.86050781 2.32070313 10.84601563 2.03515625 9.80078125 C0 2.27170567 0 2.27170567 0 0 Z " fill="#27EED9" transform="translate(313,181)"/>
<path d="M0 0 C6.59229145 -0.7013076 10.49376557 1.50397814 16 5 C15.01 6.485 15.01 6.485 14 8 C13.34 8 12.68 8 12 8 C12 7.34 12 6.68 12 6 C10.6696875 5.814375 10.6696875 5.814375 9.3125 5.625 C6.25398258 5.04792124 3.76356898 4.42126405 1 3 C0.67 2.01 0.34 1.02 0 0 Z " fill="#06FBE0" transform="translate(204,297)"/>
<path d="M0 0 C5.75762166 1.08896667 11.39247819 2.29336293 17 4 C17 4.33 17 4.66 17 5 C12.71 5 8.42 5 4 5 C3.67 6.98 3.34 8.96 3 11 C0.87953208 7.46588679 0.46800711 4.05606165 0 0 Z " fill="#2CE9D7" transform="translate(310,168)"/>
<path d="M0 0 C1.94686901 2.92030351 2.63937828 4.87048589 3.5078125 8.21875 C3.77207031 9.23324219 4.03632813 10.24773437 4.30859375 11.29296875 C4.57800781 12.35128906 4.84742188 13.40960938 5.125 14.5 C5.40214844 15.55832031 5.67929687 16.61664063 5.96484375 17.70703125 C8 25.59702124 8 25.59702124 8 29 C7.34 29 6.68 29 6 29 C4.23608177 24.0077786 2.76625914 19.25434838 2 14 C1.65264246 12.47759703 1.29794091 10.95685855 0.9375 9.4375 C0.20413732 6.22156883 -0.2139836 3.31674585 0 0 Z " fill="#22EFDA" transform="translate(367,248)"/>
<path d="M0 0 C1.32 0 2.64 0 4 0 C3.37768893 2.85477651 2.75223464 5.70880481 2.125 8.5625 C1.95097656 9.36236328 1.77695313 10.16222656 1.59765625 10.98632812 C0.55556397 15.71433941 -0.61731723 20.35991592 -2 25 C-2.33 25 -2.66 25 -3 25 C-3.1834354 19.6803734 -2.7275133 16.06737236 -1 11 C-1.27640014 8.7124024 -1.27640014 8.7124024 -2 7 C-1.01 7 -0.02 7 1 7 C0.67 4.69 0.34 2.38 0 0 Z " fill="#2BE9D6" transform="translate(158,187)"/>
<path d="M0 0 C3.76382187 1.25460729 4.25041838 2.52618612 6.25 5.875 C6.79140625 6.75929688 7.3328125 7.64359375 7.890625 8.5546875 C9 11 9 11 8 14 C4.37 10.04 0.74 6.08 -3 2 C-2.01 1.34 -1.02 0.68 0 0 Z " fill="#44E3D9" transform="translate(233,303)"/>
<path d="M0 0 C0.98612849 3.94451397 0.91655666 5.43186434 0.0625 9.25 C-0.13214844 10.14203125 -0.32679687 11.0340625 -0.52734375 11.953125 C-0.68332031 12.62859375 -0.83929688 13.3040625 -1 14 C0.02673828 13.75443359 0.02673828 13.75443359 1.07421875 13.50390625 C4.3743278 12.93552966 7.46554069 12.90369233 10.8125 12.9375 C11.97394531 12.94652344 13.13539063 12.95554687 14.33203125 12.96484375 C15.21246094 12.97644531 16.09289062 12.98804688 17 13 C17 13.33 17 13.66 17 14 C14.43795456 14.33719047 11.87545682 14.66987153 9.3125 15 C8.59126953 15.09539062 7.87003906 15.19078125 7.12695312 15.2890625 C6.06831055 15.42441406 6.06831055 15.42441406 4.98828125 15.5625 C4.34415283 15.64628906 3.70002441 15.73007812 3.03637695 15.81640625 C0.69959751 16.0270834 -1.65374276 16 -4 16 C-2.68 10.72 -1.36 5.44 0 0 Z " fill="#2CEAD3" transform="translate(122,284)"/>
<path d="M0 0 C3.99012371 0.55989303 6.5255052 1.75669768 9.8125 4.0625 C10.60269531 4.61035156 11.39289063 5.15820312 12.20703125 5.72265625 C12.79871094 6.14417969 13.39039063 6.56570313 14 7 C13.01 7.33 12.02 7.66 11 8 C11 8.99 11 9.98 11 11 C8.5625 10.625 8.5625 10.625 6 10 C5.67 9.34 5.34 8.68 5 8 C5.99 7.67 6.98 7.34 8 7 C8.33 6.34 8.66 5.68 9 5 C7.35 4.67 5.7 4.34 4 4 C4 3.34 4 2.68 4 2 C2.68 2 1.36 2 0 2 C0 1.34 0 0.68 0 0 Z " fill="#1DF0D7" transform="translate(197,271)"/>
<path d="M0 0 C2.248136 3.37220401 3.16868014 6.63804748 4.1875 10.5 C4.37763672 11.17675781 4.56777344 11.85351562 4.76367188 12.55078125 C5.65867411 15.89960881 6.11900532 17.64298405 5 21 C4.67 19.68 4.34 18.36 4 17 C3.34 17 2.68 17 2 17 C0.7017874 11.23918159 -0.25706972 5.91260345 0 0 Z " fill="#1CF1DD" transform="translate(353,195)"/>
<path d="M0 0 C0.33 0.66 0.66 1.32 1 2 C1.99 2.33 2.98 2.66 4 3 C0.04 5.64 -3.92 8.28 -8 11 C-8.66 10.67 -9.32 10.34 -10 10 C-3.84965831 2.51708428 -3.84965831 2.51708428 0 0 Z " fill="#30E8DA" transform="translate(272,306)"/>
<path d="M0 0 C-2.7819368 3.27286682 -6.27954067 4.96427697 -10 7 C-10.66 5.35 -11.32 3.7 -12 2 C-4.71428571 -1.57142857 -4.71428571 -1.57142857 0 0 Z " fill="#17F4DC" transform="translate(286,291)"/>
<path d="M0 0 C1.78596189 2.67894284 2.39169178 4.0031669 3.0703125 7.01171875 C3.33134766 8.14770508 3.33134766 8.14770508 3.59765625 9.30664062 C3.85869141 10.48516602 3.85869141 10.48516602 4.125 11.6875 C4.30675781 12.48478516 4.48851562 13.28207031 4.67578125 14.10351562 C5.12273427 16.06775651 5.56210416 18.03372014 6 20 C4.68 20.33 3.36 20.66 2 21 C2.495 16.545 2.495 16.545 3 12 C2.34 12 1.68 12 1 12 C0.67 8.04 0.34 4.08 0 0 Z " fill="#29EBD7" transform="translate(320,234)"/>
<path d="M0 0 C2.125 0.375 2.125 0.375 4 1 C2.56547553 2.93976579 1.12753183 4.87682931 -0.3125 6.8125 C-0.71662109 7.35970703 -1.12074219 7.90691406 -1.53710938 8.47070312 C-3.54284347 11.16132204 -5.5291298 13.72104205 -8 16 C-8 14.68 -8 13.36 -8 12 C-7.34 12 -6.68 12 -6 12 C-6 11.01 -6 10.02 -6 9 C-5.34 9 -4.68 9 -4 9 C-4 8.01 -4 7.02 -4 6 C-3.34 6 -2.68 6 -2 6 C-2 4.68 -2 3.36 -2 2 C-1.34 1.34 -0.68 0.68 0 0 Z " fill="#26EEDC" transform="translate(267,288)"/>
<path d="M0 0 C0.33 0 0.66 0 1 0 C1.02578125 0.61746094 1.0515625 1.23492187 1.078125 1.87109375 C1.66089668 10.57293446 4.0840155 17.45016001 10 24 C5.89769215 22.48062672 3.22445998 19.68132462 1 16 C-1.05101033 10.4703153 -1.21694288 5.71963154 0 0 Z " fill="#2EECD5" transform="translate(256,154)"/>
<path d="M0 0 C1.65 0 3.3 0 5 0 C5.33 1.32 5.66 2.64 6 4 C2.62902617 5.49821059 0.79557881 6 -3 6 C-2.67 4.68 -2.34 3.36 -2 2 C-1.34 2 -0.68 2 0 2 C0 1.34 0 0.68 0 0 Z " fill="#06FADD" transform="translate(287,297)"/>
<path d="M0 0 C0.99 0.66 1.98 1.32 3 2 C3 4 3 4 1.5 5.625 C1.005 6.07875 0.51 6.5325 0 7 C0.99 7 1.98 7 3 7 C3.99 8.98 4.98 10.96 6 13 C2.7173068 11.50923566 0.06922559 9.61379679 -2.75 7.375 C-3.54921875 6.74335938 -4.3484375 6.11171875 -5.171875 5.4609375 C-6.07679688 4.73777344 -6.07679688 4.73777344 -7 4 C-6.34 3.67 -5.68 3.34 -5 3 C-4.01 3.66 -3.02 4.32 -2 5 C-1.34 3.35 -0.68 1.7 0 0 Z " fill="#2BECD6" transform="translate(225,291)"/>
<path d="M0 0 C0.33 0 0.66 0 1 0 C1.33 3.96 1.66 7.92 2 12 C1.01 12.495 1.01 12.495 0 13 C-0.99 12.67 -1.98 12.34 -3 12 C-2.69230293 10.18667846 -2.37870936 8.37435655 -2.0625 6.5625 C-1.80146484 5.04849609 -1.80146484 5.04849609 -1.53515625 3.50390625 C-1 1 -1 1 0 0 Z " fill="#1CF1DD" transform="translate(140,218)"/>
<path d="M0 0 C0 0.99 0 1.98 0 3 C-0.99 3 -1.98 3 -3 3 C-3.103125 3.639375 -3.20625 4.27875 -3.3125 4.9375 C-3.539375 5.618125 -3.76625 6.29875 -4 7 C-4.99 7.33 -5.98 7.66 -7 8 C-7 9.32 -7 10.64 -7 12 C-7.66 12 -8.32 12 -9 12 C-9 12.66 -9 13.32 -9 14 C-9.66 14 -10.32 14 -11 14 C-9.35298615 9.33346075 -5.80697593 0 0 0 Z " fill="#24EED6" transform="translate(268,209)"/>
<path d="M0 0 C0.33 0 0.66 0 1 0 C1 2.97 1 5.94 1 9 C0.01 9 -0.98 9 -2 9 C-2 8.34 -2 7.68 -2 7 C-2.99 7 -3.98 7 -5 7 C-5.66 5.35 -6.32 3.7 -7 2 C-4.525 2.495 -4.525 2.495 -2 3 C-1.34 2.01 -0.68 1.02 0 0 Z " fill="#13F5DD" transform="translate(245,299)"/>
<path d="M0 0 C0.33 0.66 0.66 1.32 1 2 C1.66 2.33 2.32 2.66 3 3 C2.67 4.32 2.34 5.64 2 7 C0.35 7 -1.3 7 -3 7 C-3.33 6.01 -3.66 5.02 -4 4 C-4.99 3.34 -5.98 2.68 -7 2 C-4.69 1.34 -2.38 0.68 0 0 Z " fill="#10F6DD" transform="translate(157,187)"/>
<path d="M0 0 C1.98 0 3.96 0 6 0 C3.43969702 2.56030298 0.78054973 3.65972186 -2.5 5.1875 C-3.6653125 5.73792969 -4.830625 6.28835938 -6.03125 6.85546875 C-7.0109375 7.23316406 -7.990625 7.61085938 -9 8 C-9.66 7.67 -10.32 7.34 -11 7 C-10.01 6.67 -9.02 6.34 -8 6 C-8 4.68 -8 3.36 -8 2 C-7.01 2.33 -6.02 2.66 -5 3 C-4.67 2.67 -4.34 2.34 -4 2 C-2.68 2 -1.36 2 0 2 C0 1.34 0 0.68 0 0 Z " fill="#26EDDA" transform="translate(309,257)"/>
<path d="M0 0 C2.31 0.33 4.62 0.66 7 1 C6.01 1.66 5.02 2.32 4 3 C3.63469768 6.12557959 3.63469768 6.12557959 3.8125 9.625 C3.83957031 10.81351563 3.86664063 12.00203125 3.89453125 13.2265625 C3.94673828 14.59941406 3.94673828 14.59941406 4 16 C2.60025314 13.36518239 1.58775959 10.89629292 0.875 8 C0.70742188 7.34 0.53984375 6.68 0.3671875 6 C0 4 0 4 0 0 Z " fill="#32E8D3" transform="translate(338,187)"/>
<path d="M0 0 C2.86237248 2.86237248 3.90730493 4.06081905 4.09765625 8.04296875 C4.06510417 10.02864583 4.03255208 12.01432292 4 14 C2.68 13.34 1.36 12.68 0 12 C0 8.04 0 4.08 0 0 Z " fill="#20EFDA" transform="translate(292,150)"/>
<path d="M0 0 C0.33 0 0.66 0 1 0 C3.53065539 6.62790698 3.53065539 6.62790698 2.01953125 10.53515625 C0.7612756 12.75913192 -0.54936942 14.89707245 -2 17 C-3.59190467 13.81619067 -2.28749598 10.71923676 -1.5625 7.375 C-1.41490234 6.66859375 -1.26730469 5.9621875 -1.11523438 5.234375 C-0.74950507 3.48831251 -0.37552879 1.74398116 0 0 Z " fill="#44E0D6" transform="translate(255,300)"/>
<path d="M0 0 C0.33 0.99 0.66 1.98 1 3 C-0.14453125 5.26171875 -0.14453125 5.26171875 -1.8125 7.6875 C-2.35519531 8.49574219 -2.89789063 9.30398437 -3.45703125 10.13671875 C-3.96621094 10.75160156 -4.47539062 11.36648437 -5 12 C-5.66 12 -6.32 12 -7 12 C-7 11.34 -7 10.68 -7 10 C-6.34 10 -5.68 10 -5 10 C-5 8.68 -5 7.36 -5 6 C-4.34 6 -3.68 6 -3 6 C-3.33 4.68 -3.66 3.36 -4 2 C-2.68 1.34 -1.36 0.68 0 0 Z " fill="#20EDD6" transform="translate(294,165)"/>
<path d="M0 0 C0.33 0 0.66 0 1 0 C1 3.3 1 6.6 1 10 C0.34 10 -0.32 10 -1 10 C-1 11.65 -1 13.3 -1 15 C-1.66 15 -2.32 15 -3 15 C-2.44854729 9.76119922 -1.57077907 5.02649303 0 0 Z " fill="#2AEED7" transform="translate(150,257)"/>
<path d="M0 0 C0.33 0.99 0.66 1.98 1 3 C0.34 3 -0.32 3 -1 3 C-1 3.66 -1 4.32 -1 5 C-0.34 5.33 0.32 5.66 1 6 C1 6.66 1 7.32 1 8 C-1.97 7.505 -1.97 7.505 -5 7 C-5 7.99 -5 8.98 -5 10 C-5.66 10 -6.32 10 -7 10 C-5.6062718 5.56541027 -3.39417765 3.12621626 0 0 Z " fill="#22EFD9" transform="translate(264,144)"/>
<path d="M0 0 C0.66 0.33 1.32 0.66 2 1 C0 4 0 4 -3 5 C-4.68538601 6.99665314 -4.68538601 6.99665314 -6 9 C-7.32 8.67 -8.64 8.34 -10 8 C-8.89764064 7.03958829 -7.79303376 6.08175593 -6.6875 5.125 C-5.76517578 4.32449219 -5.76517578 4.32449219 -4.82421875 3.5078125 C-3 2 -3 2 0 0 Z " fill="#24EEDA" transform="translate(291,276)"/>
<path d="M0 0 C1.65 1.32 3.3 2.64 5 4 C4.67 4.99 4.34 5.98 4 7 C3.93334624 8.39439664 3.91461801 9.79169875 3.9375 11.1875 C3.958125 12.445625 3.97875 13.70375 4 15 C2.1866078 11.79989612 1.47786026 8.86716157 0.875 5.25 C0.70742188 4.26515625 0.53984375 3.2803125 0.3671875 2.265625 C0.24601562 1.51796875 0.12484375 0.7703125 0 0 Z " fill="#27EDDA" transform="translate(329,240)"/>
<path d="M0 0 C0.33 0 0.66 0 1 0 C1.36263859 5.8022175 0.25684543 9.63999211 -2 15 C-2.33 15 -2.66 15 -3 15 C-2.44854729 9.76119922 -1.57077907 5.02649303 0 0 Z " fill="#29EEDB" transform="translate(180,228)"/>
<path d="M0 0 C1.21065165 3.63195496 0.62784815 5.06531629 -0.4375 8.6875 C-0.86869141 10.17830078 -0.86869141 10.17830078 -1.30859375 11.69921875 C-1.53675781 12.45847656 -1.76492187 13.21773437 -2 14 C-2.33 14 -2.66 14 -3 14 C-3.33 11.03 -3.66 8.06 -4 5 C-3.01 4.67 -2.02 4.34 -1 4 C-0.26676204 1.98491642 -0.26676204 1.98491642 0 0 Z " fill="#23EAD3" transform="translate(150,228)"/>
<path d="M0 0 C2.625 -0.1875 2.625 -0.1875 5 0 C4.67 1.98 4.34 3.96 4 6 C2.02 5.01 0.04 4.02 -2 3 C-1.34 2.01 -0.68 1.02 0 0 Z " fill="#08FADF" transform="translate(220,291)"/>
<path d="M0 0 C0.33 0 0.66 0 1 0 C1.375 2.6875 1.375 2.6875 1 6 C-0.823983 8.06398076 -2.72763839 9.39041053 -5 11 C-3.77782954 6.95743617 -2.37245704 3.50711041 0 0 Z " fill="#4ED5CD" transform="translate(262,306)"/>
<path d="M0 0 C2.98479194 4.47718792 4 8.63824093 4 14 C3.34 14 2.68 14 2 14 C0.4087311 9.126739 -0.21192221 5.19209404 0 0 Z " fill="#24EDDC" transform="translate(363,233)"/>
<path d="M0 0 C0.66 0 1.32 0 2 0 C1.71572583 1.58467728 1.42225182 3.1677057 1.125 4.75 C0.88136719 6.07257813 0.88136719 6.07257813 0.6328125 7.421875 C0 10 0 10 -2 14 C-2 11.03 -2 8.06 -2 5 C-1.34 5 -0.68 5 0 5 C0 3.35 0 1.7 0 0 Z " fill="#27EADA" transform="translate(175,216)"/>
<path d="M0 0 C1.69433918 3.0469629 2.49467112 5.82821466 3.125 9.25 C3.29257812 10.14203125 3.46015625 11.0340625 3.6328125 11.953125 C3.75398438 12.62859375 3.87515625 13.3040625 4 14 C3.34 14 2.68 14 2 14 C1.32741333 11.66836622 0.66152556 9.3347961 0 7 C-0.226875 6.2575 -0.45375 5.515 -0.6875 4.75 C-1 3 -1 3 0 0 Z " fill="#25EEDA" transform="translate(315,215)"/>
<path d="M0 0 C5.52677733 -0.19392201 9.75614911 0.2520497 15 2 C15 2.33 15 2.66 15 3 C10.38 3 5.76 3 1 3 C0.67 2.01 0.34 1.02 0 0 Z " fill="#19F3DA" transform="translate(312,170)"/>
<path d="M0 0 C2.86724686 0.57344937 3.8614515 0.8614515 6 3 C6.33 3 6.66 3 7 3 C7 4.65 7 6.3 7 8 C3.75700849 5.61042731 1.49097658 3.7952131 0 0 Z " fill="#27F4DA" transform="translate(225,284)"/>
<path d="M0 0 C3.93809611 3.76687454 3.93809611 3.76687454 4.09765625 6.9453125 C4.06510417 8.96354167 4.03255208 10.98177083 4 13 C1.99706653 9.99559979 1.50728374 8.29006055 0.875 4.8125 C0.70742188 3.91144531 0.53984375 3.01039063 0.3671875 2.08203125 C0.24601562 1.39496094 0.12484375 0.70789063 0 0 Z " fill="#30ECD6" transform="translate(321,211)"/>
<path d="M0 0 C1.17539996 0.92652701 2.34010577 1.86663387 3.5 2.8125 C4.1496875 3.33457031 4.799375 3.85664063 5.46875 4.39453125 C7 6 7 6 7 9 C3.83884224 7.63016497 3.0072908 7.0109362 1 4 C0.375 1.8125 0.375 1.8125 0 0 Z " fill="#27EBD3" transform="translate(234,164)"/>
<path d="M0 0 C2.00293347 3.00440021 2.49271626 4.70993945 3.125 8.1875 C3.37636719 9.53908203 3.37636719 9.53908203 3.6328125 10.91796875 C3.75398438 11.60503906 3.87515625 12.29210937 4 13 C3.34 12.34 2.68 11.68 2 11 C2 10.01 2 9.02 2 8 C1.34 8 0.68 8 0 8 C0 5.36 0 2.72 0 0 Z " fill="#28ECD9" transform="translate(333,198)"/>
<path d="M0 0 C0.66 0 1.32 0 2 0 C1.56179109 4.55737263 1.14958831 7.57653445 -2 11 C-1.125 3.375 -1.125 3.375 0 0 Z " fill="#29F0DB" transform="translate(197,165)"/>
<path d="M0 0 C2.31 1.98 4.62 3.96 7 6 C6.67 6.66 6.34 7.32 6 8 C3.69 6.35 1.38 4.7 -1 3 C-0.67 2.01 -0.34 1.02 0 0 Z " fill="#51CAC8" transform="translate(230,309)"/>
<path d="M0 0 C1.98 0.66 3.96 1.32 6 2 C6 3.98 6 5.96 6 8 C1.125 3.375 1.125 3.375 0 0 Z " fill="#24EFDC" transform="translate(232,292)"/>
<path d="M0 0 C2.97 0 5.94 0 9 0 C5.99895182 1.50052409 3.90648893 2.38848592 0.75 3.125 C-0.4875 3.41375 -1.725 3.7025 -3 4 C-2.67 3.34 -2.34 2.68 -2 2 C-1.34 2 -0.68 2 0 2 C0 1.34 0 0.68 0 0 Z " fill="#28EED3" transform="translate(303,281)"/>
<path d="M0 0 C2.3125 1.9375 2.3125 1.9375 4 4 C1 5 1 5 -2.1875 3.5625 C-3.115625 3.046875 -4.04375 2.53125 -5 2 C-5 1.67 -5 1.34 -5 1 C-2.75 0.25 -2.75 0.25 0 0 Z " fill="#2AF0DB" transform="translate(210,286)"/>
<path d="M0 0 C2.15377564 2.62198774 3.40072174 4.64404172 4 8 C2.68 8 1.36 8 0 8 C0 5.36 0 2.72 0 0 Z " fill="#1FF0D2" transform="translate(235,268)"/>
<path d="M0 0 C-2.31 1.65 -4.62 3.3 -7 5 C-7.66 4.67 -8.32 4.34 -9 4 C-6.35287314 0.09233654 -4.86783735 -1.62261245 0 0 Z " fill="#50DBD7" transform="translate(271,312)"/>
<path d="M0 0 C0.66 0 1.32 0 2 0 C2.33 2.31 2.66 4.62 3 7 C1.68 7.33 0.36 7.66 -1 8 C-1 7.34 -1 6.68 -1 6 C-0.34 6 0.32 6 1 6 C0.67 4.02 0.34 2.04 0 0 Z " fill="#2AF0DD" transform="translate(361,277)"/>
<path d="M0 0 C-0.99 0 -1.98 0 -3 0 C-3.33 1.65 -3.66 3.3 -4 5 C-4.66 4.67 -5.32 4.34 -6 4 C-6.625 1.9375 -6.625 1.9375 -7 0 C-3.86650268 -1.04449911 -3.01031744 -0.93423645 0 0 Z " fill="#18F0D5" transform="translate(323,264)"/>
<path d="M0 0 C0.33 0 0.66 0 1 0 C1 3.3 1 6.6 1 10 C1.66 10 2.32 10 3 10 C2.67 10.99 2.34 11.98 2 13 C1.34 12.67 0.68 12.34 0 12 C0 8.04 0 4.08 0 0 Z " fill="#2CEDD7" transform="translate(256,294)"/>
<path d="M0 0 C0.99 0 1.98 0 3 0 C3.66 2.97 4.32 5.94 5 9 C4.34 9 3.68 9 3 9 C2 6 1 3 0 0 Z " fill="#34E6D7" transform="translate(308,197)"/>
</svg>
